<?xml version="1.0" encoding="utf-8"?>
<!-- Generator: Adobe Illustrator 19.0.0, SVG Export Plug-In . SVG Version: 6.00 Build 0)  -->
<svg version="1.1" id="Capa_1" xmlns="http://www.w3.org/2000/svg" xmlns:xlink="http://www.w3.org/1999/xlink" x="0px" y="0px"
	 viewBox="-19 -7 24 24" style="enable-background:new -19 -7 24 24;" xml:space="preserve">
<style type="text/css">
	.st0{fill:#FFCD00;}
</style>
<g id="Capa_2">
	<rect x="-19" y="-7" class="st0" width="24" height="24"/>
	<rect x="-6.9" y="16.1" class="st0" width="0" height="0.8"/>
</g>
<g id="Capa_1_1_">
	<g id="surface1">
		<path d="M-5.1-4.6L-5.1-4.6l-10.4,2c-0.3,0-0.3,0.2-0.3,0.5v13.9c0,0.2,0.2,0.3,0.3,0.3l10.4,2c0.2,0,0.2,0,0.3,0
			c0.2,0,0.2-0.2,0.2-0.3v-1.8h6.4c0.5,0,0.8-0.3,0.8-0.8V-1.7c0-0.5-0.3-0.8-0.8-0.8h-6.5v-1.8c0-0.2,0-0.2-0.2-0.3H-5.1z
			 M-5.4-3.8v1.6c0,0.2,0,0.2,0,0.3v13.2v0.2v1.8l-9.6-1.8V-2L-5.4-3.8z M-4.8-1.7h6.4v12.7h-6.4V9.3h1.5V8.5h-1.5V6.2h1.5V5.4h-1.5
			V3.6h1.5V2.8h-1.5V1h1.5V0.3h-1.5V-1.7z M-2.5,0.3v0.8h2.9V0.3H-2.5z M-13.4,1.3l2,3.4l-2.3,3.4h1.8l1.5-2.1
			c0.2-0.2,0.2-0.3,0.2-0.5l0,0c0,0.2,0.2,0.3,0.2,0.5L-9,8.3h1.8l-2.1-3.6l2.1-3.4H-9l-1.1,2.1c-0.2,0.3-0.2,0.5-0.2,0.7l0,0
			c0-0.2-0.2-0.5-0.2-0.7l-1-2.1H-13.4z M-2.5,2.9v0.8h2.9V2.9H-2.5z M-2.5,5.5v0.8h2.9V5.5H-2.5z M-2.5,8.5v0.8h2.9V8.5H-2.5z"/>
	</g>
</g>
</svg>
