<?xml version="1.0" encoding="utf-8"?>
<!-- Generator: Adobe Illustrator 19.0.0, SVG Export Plug-In . SVG Version: 6.00 Build 0)  -->
<svg version="1.1" id="Capa_1" xmlns="http://www.w3.org/2000/svg" xmlns:xlink="http://www.w3.org/1999/xlink" x="0px" y="0px"
	 viewBox="0 0 16.6 39" style="enable-background:new 0 0 16.6 39;" xml:space="preserve">
<style type="text/css">
	.st0{clip-path:url(#SVGID_2_);fill:#CBCBCB;}
</style>
<g>
	<defs>
		<rect id="SVGID_1_" y="0" width="16.6" height="39"/>
	</defs>
	<clipPath id="SVGID_2_">
		<use xlink:href="#SVGID_1_"  style="overflow:visible;"/>
	</clipPath>
	<path class="st0" d="M16.1,18.4L16.1,18.4c-0.6-0.5-1.5-0.4-2,0.3L0.3,36.8c-0.5,0.6-0.4,1.5,0.3,2c0.6,0.5,1.5,0.4,2-0.3
		l13.7-18.1C16.8,19.8,16.7,18.9,16.1,18.4"/>
	<path class="st0" d="M16.1,20.6L16.1,20.6c0.6-0.5,0.7-1.4,0.3-2L2.6,0.6c-0.5-0.6-1.4-0.7-2-0.3c-0.6,0.5-0.7,1.4-0.3,2l13.8,18.1
		C14.5,21,15.4,21.1,16.1,20.6"/>
</g>
</svg>
