<?xml version="1.0" encoding="utf-8"?>
<!-- Generator: Adobe Illustrator 19.0.0, SVG Export Plug-In . SVG Version: 6.00 Build 0)  -->
<svg version="1.1" id="Capa_1" xmlns="http://www.w3.org/2000/svg" xmlns:xlink="http://www.w3.org/1999/xlink" x="0px" y="0px"
	 viewBox="0 0 16.6 39" style="enable-background:new 0 0 16.6 39;" xml:space="preserve">
<style type="text/css">
	.st0{clip-path:url(#SVGID_2_);fill:#CBCBCB;}
</style>
<g>
	<defs>
		<rect id="SVGID_1_" y="0" width="16.6" height="39"/>
	</defs>
	<clipPath id="SVGID_2_">
		<use xlink:href="#SVGID_1_"  style="overflow:visible;"/>
	</clipPath>
	<path class="st0" d="M0.6,20.6L0.6,20.6c0.6,0.5,1.5,0.4,2-0.3L16.3,2.3c0.5-0.6,0.4-1.5-0.3-2c-0.6-0.5-1.5-0.4-2,0.3L0.3,18.6
		C-0.2,19.3-0.1,20.2,0.6,20.6"/>
	<path class="st0" d="M0.6,18.4L0.6,18.4c-0.6,0.5-0.7,1.4-0.3,2l13.8,18.1c0.5,0.6,1.4,0.7,2,0.3c0.6-0.5,0.7-1.4,0.3-2L2.6,18.7
		C2.1,18.1,1.2,17.9,0.6,18.4"/>
</g>
</svg>
